<svg width="79" height="74" viewBox="0 0 79 74" fill="none" xmlns="http://www.w3.org/2000/svg">
<rect width="79" height="74" fill="#1E1E1E"/>
<g id="MacBook Air - 1" clip-path="url(#clip0_0_1)">
<rect width="1280" height="1648" transform="translate(-98 -19)" fill="#15151D"/>
<g id="Logo">
<path id="Vector" fill-rule="evenodd" clip-rule="evenodd" d="M11.9673 63.2473C12.9212 60.1908 14.1786 56.0082 14.4821 54.9626C14.7856 53.7963 14.9157 53.8365 16.1298 53.5147C17.8208 53.0723 19.3383 52.4691 21.0293 51.9865C21.8965 51.7452 22.9371 51.705 22.9371 50.78C22.9371 49.3321 19.9453 50.0963 17.8208 46.4365C15.3493 42.093 15.4794 38.0713 14.9591 36.9855C14.5255 39.0365 16.0431 43.943 17.0837 45.9539C17.3005 46.3561 17.5606 46.7582 17.8208 47.1202C18.0809 47.5224 18.5145 47.8843 18.6879 48.2463C18.4278 48.5278 16.8669 49.1311 16.4333 49.1311C16.4333 48.5278 16.3466 48.2061 16.2598 47.643C16.1731 46.9995 16.4333 46.718 16.0864 46.2354C15.0892 45.793 13.0947 46.5974 11.8806 46.2756C11.7505 45.4311 13.0947 42.7767 12.7911 42.0528C12.2708 41.6104 8.80213 40.9268 7.8916 40.4441C7.97832 40.1626 8.45526 39.68 8.71542 39.4387C9.10564 39.0768 9.3658 38.7952 9.75603 38.4735C10.0595 38.2322 11.6638 36.9452 11.7939 36.6235C11.5337 35.8594 10.0162 34.7333 9.10564 34.2105C8.54198 33.8887 7.93496 33.6877 7.28458 33.4866C6.72091 33.3257 5.59358 33.4061 5.16 32.8833C6.24397 32.2801 7.1545 31.5964 8.15175 30.9529C8.80213 30.5105 10.6666 29.4648 11.1001 28.9822C11.1001 28.1779 9.3658 26.1268 8.93221 25.6442C8.45526 25.1214 7.93496 24.679 7.50137 24.2768C7.1545 23.9551 6.20061 23.392 6.07053 22.9497C7.11114 22.5877 14.222 22.6279 14.6989 22.1855C14.6989 22.1453 14.7423 22.1051 14.7423 22.1051L14.829 21.7834C14.8724 20.5768 14.0052 18.4051 13.4849 17.3595C13.2681 16.9171 12.7478 16.354 12.7478 15.9116C14.0485 15.8312 16.6934 16.716 17.8641 17.3192C18.3411 17.5606 18.8614 17.9627 19.3817 18.0029C20.7692 16.8366 20.9426 11.3269 21.3762 10.7236C21.8098 10.8443 23.7176 12.8954 24.1511 13.4182C24.7148 14.0617 26.189 16.1932 26.7527 16.4345C27.1429 16.2736 27.273 15.9519 27.5331 15.6703C28.3136 14.8258 28.964 14.2225 30.0046 13.4986C30.4815 13.1769 33.3866 11.3671 34.0369 11.3269C34.2104 11.7291 33.9936 12.7747 33.9502 13.2573C33.8635 14.866 34.167 18.0029 34.8174 19.3301C36.0748 19.4105 40.2806 17.1986 41.538 17.2388C41.4947 17.8019 39.1099 21.2203 38.5463 22.1453C38.2427 22.6279 37.5924 23.392 37.5924 23.8747C38.763 24.3573 43.5325 24.4377 44.3563 24.9203C44.2696 25.3627 42.145 26.9714 41.7548 27.3333C40.9743 28.017 39.7603 28.942 39.1099 29.6659C39.847 30.3094 44.313 31.5561 44.7466 32.079C44.0095 33.004 40.6275 34.3311 39.24 34.7735C38.7631 34.9344 37.549 35.2561 37.2021 35.4572C37.3756 36.0203 38.6763 36.7442 39.24 37.0659C39.7169 37.3474 41.4947 38.1518 41.6681 38.4333C40.7142 39.4789 38.1127 39.7605 37.1588 40.3637C37.1154 41.2887 38.1994 42.6159 38.156 43.4202C37.4623 43.6213 35.5111 43.6615 35.1643 44.1441C34.9041 44.8278 36.465 45.7126 36.6818 46.4767C36.0314 46.8387 35.0776 46.9996 34.3405 47.2006C32.953 47.6028 32.8663 49.0908 30.7417 49.855C29.3542 50.3376 29.4843 50.0561 29.5276 51.6647C30.5682 52.4691 30.2214 52.1474 30.9585 53.2332C31.3921 53.8767 31.7389 54.3593 32.1725 55.0028C32.9096 56.1691 36.1182 62.0006 35.9014 63.0462C35.7713 63.6495 33.083 65.2984 32.7795 66.0625C32.7362 66.5451 34.6006 67.9527 35.0342 68.2745C37.5924 70.2451 36.1182 70.1647 36.465 70.7277C37.3322 69.481 36.3783 69.0788 35.4244 68.2745C35.0342 67.9125 34.644 67.5908 34.2537 67.269C32.6928 66.0223 33.083 66.0223 34.7307 64.7756C34.9475 64.5745 36.0748 63.6093 36.2482 63.368C36.8986 62.1614 32.8663 55.2039 31.7823 53.8767C31.4788 53.5147 30.655 52.6702 30.5682 52.2278C31.0018 52.1876 34.4705 53.193 35.4244 53.3941C37.7658 53.9169 36.8119 53.0321 38.5896 58.6625C39.6302 62.0006 40.6708 65.2179 41.4947 68.5962C41.8849 70.2049 42.3185 72.0147 42.7954 73.6233H42.8821C43.0989 72.9397 43.1856 71.331 43.2724 70.6473C43.5759 67.7114 44.5298 65.0169 46.3508 62.6843C47.0879 62.644 50.6867 64.1321 53.0281 64.0114C51.684 63.4484 46.6977 63.4484 43.1856 59.2256C42.8821 58.8636 42.4485 58.3408 42.145 57.8582C41.8415 57.4158 41.4947 56.531 41.2345 56.2897C41.0611 56.6919 41.538 57.2549 41.5814 57.818C40.1072 57.9788 39.0666 57.1745 38.633 56.0886C38.026 54.4799 38.8498 53.7158 39.847 53.0723C39.1099 50.6593 36.8553 50.8202 38.5896 46.5974C39.7169 43.9028 38.8064 44.4256 39.1099 43.1387C39.3701 42.0931 40.324 41.3691 40.9743 40.4039C42.015 38.8355 44.0528 36.9452 45.6137 35.9398C47.218 34.8942 50.6434 34.0094 52.9414 33.8887C59.4018 33.567 59.4452 35.055 62.3936 36.0203C64.0846 36.5833 65.0818 37.9507 66.1224 39.2376C66.7728 40.042 67.3365 40.967 67.9002 41.9322C68.6806 43.2191 68.7673 43.7822 68.9408 45.3909C69.0708 46.5572 69.4177 48.4072 69.4177 49.4528C69.4177 50.3778 69.0275 50.6191 68.9841 51.3028C68.9408 51.705 69.0275 51.9061 68.9408 52.3082C68.8107 52.7506 68.724 52.7506 68.724 53.2734C69.7646 54.1582 70.0247 54.9626 69.4177 56.2093C68.6806 57.7375 67.5533 57.3354 66.7295 58.0593C66.3826 58.3408 66.1658 58.9038 65.7756 59.306C65.0385 60.1506 64.4314 60.7538 63.4776 61.4375C61.5698 62.8451 62.0034 61.9604 63.2608 63.8103C63.651 64.3734 63.9545 65.0571 64.2147 65.7408C73.2333 59.0245 79 48.7289 79 37.1463C79 16.9171 61.353 0.548671 39.5869 0.508453C38.0693 0.508453 36.5518 0.588887 35.1209 0.749756C15.3493 2.76062 0.000301297 18.3247 0.000301297 37.1866C-0.0430575 47.2409 4.59633 56.5712 11.9673 63.2473Z" fill="#2EA836"/>
<path id="Vector_2" fill-rule="evenodd" clip-rule="evenodd" d="M43.4458 48.568C42.6653 51.9865 46.9145 54.7212 50.5133 53.2734C55.0226 51.4636 53.505 46.1147 51.5539 45.6321C51.207 47.281 50.2098 47.6028 48.4321 47.9647C47.6516 48.1256 46.8711 48.2463 46.0473 48.3267C45.2235 48.4473 44.0528 48.3267 43.4458 48.568Z" fill="white"/>
<path id="Vector_3" fill-rule="evenodd" clip-rule="evenodd" d="M55.6296 49.0909C55.6296 54.1984 63.781 54.9626 65.5154 50.5789C66.6427 47.7637 64.9084 48.4876 63.0439 48.3267C61.8733 48.2463 59.4452 47.8843 58.4913 47.2811C57.5807 46.718 57.6675 46.4365 57.3639 45.793L57.2772 45.6724C56.4968 46.4767 55.6296 47.5224 55.6296 49.0909Z" fill="white"/>
<path id="Vector_4" fill-rule="evenodd" clip-rule="evenodd" d="M17.6039 32.8431C18.3844 32.9638 20.2055 32.2801 22.7203 32.642C23.2839 32.7224 23.8042 32.9235 24.4113 32.8431C25.5819 31.2344 24.3245 27.8159 21.0293 27.8159C17.7774 27.8159 16.3899 31.1138 17.6039 32.8431Z" fill="white"/>
<path id="Vector_5" fill-rule="evenodd" clip-rule="evenodd" d="M28.5737 29.2638C26.9695 29.4246 26.5792 29.8268 26.7093 31.5159C26.8394 33.0442 27.6632 31.6768 32.6928 32.7224C33.9069 32.9637 34.1237 33.0442 34.2971 31.8779C34.4705 30.7518 33.9936 30.6714 33.2131 30.229C31.9991 29.5051 30.3081 29.1029 28.5737 29.2638Z" fill="white"/>
<path id="Vector_6" fill-rule="evenodd" clip-rule="evenodd" d="M20.1621 67.4299C21.9832 65.9419 21.4195 66.1027 20.0754 64.8962L18.0375 63.2071C17.5606 62.6843 18.2977 61.4777 18.6879 60.4723C19.3817 58.7028 20.0321 56.893 20.8559 55.2441C21.0293 54.8821 21.723 53.9169 21.5063 53.5147C20.6391 54.3593 18.7747 59.4267 18.1243 61.0354C17.1704 63.4484 17.4739 63.006 18.9914 64.4538L20.5524 65.7006C21.4195 66.3842 20.2488 66.5049 20.1621 67.4299Z" fill="#2F9237"/>
<path id="Vector_7" fill-rule="evenodd" clip-rule="evenodd" d="M31.392 64.8158C31.6522 62.1212 30.8284 57.5767 30.3081 54.9626L30.8717 59.8288C30.9151 60.8343 31.0452 64.0919 31.392 64.8158Z" fill="#2F9237"/>
<path id="Vector_8" fill-rule="evenodd" clip-rule="evenodd" d="M22.33 64.0919L22.5902 55.7669C22.2 56.8528 22.2 60.4723 22.2 61.9201C22.2 62.2821 22.2433 62.644 22.2433 62.9658C22.2433 63.4082 22.2 63.569 22.2867 63.9712C22.33 64.0516 22.33 64.0516 22.33 64.0919Z" fill="#2F9237"/>
</g>
</g>
<defs>
<clipPath id="clip0_0_1">
<rect width="1280" height="1648" fill="white" transform="translate(-98 -19)"/>
</clipPath>
</defs>
</svg>
