<svg width="57" height="63" viewBox="0 0 57 63" fill="none" xmlns="http://www.w3.org/2000/svg">
<g filter="url(#filter0_d_0_32)">
<path d="M34.3005 31.1493C35.8871 30.0275 37.8395 28.5654 39.8664 27.2604C40.5043 26.849 41.5858 26.4153 42.0455 26.7518C43.1885 27.5894 43.5253 29.9452 42.8388 31.0633C41.8448 32.6862 40.6792 34.1744 39.7143 35.816C38.9922 37.0425 38.5033 38.4447 37.8492 39.7273C37.4445 40.5201 36.8908 41.2119 36.4667 41.9934C35.3172 44.1136 34.1645 46.2301 33.0895 48.3989C32.4193 49.7488 30.7971 50.3134 29.0972 49.4235C27.896 48.7952 26.7918 47.9165 25.6586 47.1275C24.7649 46.5068 23.8518 45.9085 23.0165 45.1943C22.5243 44.7717 22.2038 44.0949 21.7375 43.62C21.1741 43.0441 20.5816 42.472 19.9275 42.0457C18.0398 40.823 16.1036 39.7012 14.2126 38.4859C12.6131 37.4613 12.584 32.8432 14.1965 31.8373C15.3848 31.0969 16.3594 31.856 17.3372 32.6712C17.9783 33.2022 18.7619 33.5462 19.5228 33.8341C21.3425 34.5222 23.1848 35.1317 25.0142 35.7711C25.4999 35.9431 25.9856 36.1189 26.2382 36.2086C26.4713 34.238 26.7109 32.4207 26.8793 30.5959C26.9181 30.1621 26.7141 29.6984 26.6267 29.2497C26.5361 28.786 26.2479 28.1877 26.4001 27.8736C27.297 25.9927 25.4837 24.9083 25.7978 22.8741C26.5069 22.1412 26.944 21.0568 26.3385 19.1722C25.3898 16.2181 28.0125 12.9424 30.5802 13.5931C31.0626 13.7165 31.6519 14.5092 31.7717 15.1075C32.3319 17.8821 32.7722 20.6904 33.2061 23.4986C33.6076 26.0862 33.9476 28.6813 34.2973 31.1493L34.3005 31.1493Z" fill="#E89AC7"/>
<path d="M34.38 31.3993L34.3005 31.3993L34.2973 31.3993L34.0802 31.3993L34.0497 31.1844C33.9432 30.4328 33.8378 29.6702 33.7312 28.9001C33.4875 27.1378 33.2382 25.3362 32.9591 23.5369L32.959 23.5368C32.5251 20.7281 32.0855 17.9252 31.5267 15.157L31.5266 15.1566C31.4763 14.9056 31.3206 14.5926 31.114 14.325C30.9015 14.0497 30.677 13.876 30.5184 13.8353C29.3616 13.5424 28.1573 14.1275 27.3383 15.184C26.522 16.237 26.1315 17.7099 26.5766 19.0957C26.8888 20.0676 26.939 20.8544 26.8061 21.5051C26.6793 22.1257 26.3896 22.604 26.0342 22.9881C25.9297 23.8023 26.1902 24.4475 26.4642 25.1257C26.4927 25.1964 26.5214 25.2675 26.5498 25.3391C26.8573 26.1134 27.1215 26.9415 26.6257 27.9812L26.625 27.9826C26.6134 28.0066 26.6024 28.0539 26.608 28.1396C26.6135 28.2238 26.6335 28.3247 26.6642 28.4425C26.6879 28.5331 26.7155 28.6254 26.7446 28.7225C26.7534 28.7519 26.7623 28.7818 26.7714 28.8122C26.8089 28.9389 26.8469 29.0732 26.8721 29.2017L26.8721 29.2019C26.8988 29.3391 26.9348 29.4689 26.9734 29.6086C26.996 29.6903 27.0196 29.7754 27.0428 29.8672C27.1014 30.0997 27.1516 30.3578 27.1283 30.6182L27.1282 30.6188C27.003 31.9763 26.8383 33.3308 26.6666 34.7428C26.6069 35.2334 26.5464 35.731 26.4864 36.238L26.4496 36.5491L26.1545 36.4442C26.0551 36.4089 25.9228 36.3614 25.7696 36.3064C25.5264 36.2191 25.2307 36.113 24.9312 36.0069C24.4128 35.8257 23.8925 35.6466 23.3712 35.4672C22.0582 35.0153 20.7396 34.5615 19.4344 34.068L19.4343 34.068C18.6687 33.7783 17.8524 33.4225 17.1777 32.8637L17.1771 32.8632C16.6828 32.4511 16.2253 32.0859 15.7555 31.9041C15.3072 31.7306 14.8498 31.7248 14.3287 32.0495C13.9958 32.2572 13.7211 32.6715 13.5307 33.2363C13.3422 33.7956 13.2473 34.471 13.2501 35.1536C13.2528 35.8361 13.3531 36.5132 13.5451 37.0754C13.7392 37.6435 14.0157 38.0628 14.3475 38.2754L14.3478 38.2756C15.2554 38.8589 16.1738 39.4208 17.0949 39.9844L17.2018 40.0498C18.1579 40.6348 19.1165 41.2225 20.0634 41.8359L20.064 41.8363C20.7428 42.2787 21.3516 42.8681 21.9159 43.4449M34.38 31.3993L21.7375 43.62M34.38 31.3993L34.4448 31.3534C34.8721 31.0513 35.3244 30.7257 35.7964 30.3858C37.0856 29.4576 38.5225 28.423 40.0018 27.4706L40.0019 27.4705C40.3041 27.2756 40.7119 27.0757 41.0922 26.9658C41.2823 26.9109 41.4559 26.8813 41.6005 26.8815C41.7469 26.8817 41.8413 26.9122 41.8979 26.9536L34.38 31.3993ZM21.9159 43.4449C21.916 43.445 21.9161 43.4451 21.9162 43.4452L21.7375 43.62M21.9159 43.4449C21.9159 43.4449 21.9159 43.4449 21.9159 43.4449L21.7375 43.62M21.9159 43.4449C22.1411 43.6743 22.3336 43.9464 22.5117 44.1982C22.5317 44.2264 22.5514 44.2544 22.5711 44.282C22.772 44.5648 22.9593 44.8157 23.1792 45.0045M21.7375 43.62C21.9477 43.8341 22.1283 44.0892 22.3083 44.3436C22.5277 44.6535 22.7462 44.9622 23.0165 45.1943M23.1792 45.0045C23.1791 45.0044 23.179 45.0043 23.1789 45.0042L23.0165 45.1943M23.1792 45.0045C23.8578 45.5846 24.5873 46.0863 25.3277 46.5955C25.4852 46.7038 25.6431 46.8124 25.8012 46.9222L25.8014 46.9223C26.1004 47.1305 26.3944 47.3425 26.6865 47.5532C27.5196 48.1541 28.3375 48.744 29.2131 49.2019L29.2132 49.202C30.8052 50.0355 32.2656 49.4962 32.8656 48.2877M23.1792 45.0045C23.1792 45.0045 23.1793 45.0046 23.1793 45.0046L23.0165 45.1943M23.0165 45.1943L32.8656 48.2877M32.8656 48.2877C33.8918 46.2173 34.9884 44.195 36.083 42.1764C36.1376 42.0757 36.1923 41.975 36.2469 41.8742L36.2469 41.8741C36.4501 41.4998 36.6817 41.1463 36.9067 40.803C36.9232 40.7778 36.9397 40.7527 36.9561 40.7276C37.1984 40.3574 37.431 39.9966 37.6265 39.6138C37.8926 39.092 38.1308 38.5507 38.3721 38.0022C38.4237 37.8849 38.4755 37.7672 38.5277 37.6494C38.8223 36.9844 39.1299 36.3159 39.4987 35.6893C39.4988 35.6893 39.4988 35.6892 39.4988 35.6892L39.7143 35.816C40.2322 34.9348 40.8081 34.0977 41.3841 33.2603C41.8812 32.5378 42.3784 31.815 42.8388 31.0633L32.8656 48.2877ZM26.2382 36.2086L25.9899 36.1793C25.9921 36.1602 25.9944 36.1413 25.9966 36.1223C26.0903 36.1559 26.1722 36.1852 26.2382 36.2086ZM26.2382 36.2086L26.3219 35.9731C26.3051 35.9671 26.2873 35.9608 26.2684 35.954C26.2583 36.0386 26.2482 36.1235 26.2382 36.2086Z" stroke="#F0CFE9" stroke-width="0.5"/>
</g>
<defs>
<filter id="filter0_d_0_32" x="0" y="0.509613" width="56.1929" height="62.3438" filterUnits="userSpaceOnUse" color-interpolation-filters="sRGB">
<feFlood flood-opacity="0" result="BackgroundImageFix"/>
<feColorMatrix in="SourceAlpha" type="matrix" values="0 0 0 0 0 0 0 0 0 0 0 0 0 0 0 0 0 0 127 0" result="hardAlpha"/>
<feOffset/>
<feGaussianBlur stdDeviation="6.5"/>
<feComposite in2="hardAlpha" operator="out"/>
<feColorMatrix type="matrix" values="0 0 0 0 1 0 0 0 0 0 0 0 0 0 0.84 0 0 0 1 0"/>
<feBlend mode="normal" in2="BackgroundImageFix" result="effect1_dropShadow_0_32"/>
<feBlend mode="normal" in="SourceGraphic" in2="effect1_dropShadow_0_32" result="shape"/>
</filter>
</defs>
</svg>
